<svg width="385" height="385" viewBox="0 0 385 385" fill="none" xmlns="http://www.w3.org/2000/svg">
<circle cx="192.499" cy="192.501" r="106.444" stroke="white" stroke-opacity="0.15"/>
<circle cx="191.644" cy="193.357" r="127.833" stroke="white" stroke-opacity="0.15"/>
<circle cx="192.5" cy="192.5" r="149.222" stroke="white" stroke-opacity="0.15"/>
<circle cx="191.645" cy="193.353" r="170.611" stroke="white" stroke-opacity="0.15"/>
<circle cx="192.5" cy="192.5" r="192" stroke="white" stroke-opacity="0.15"/>
<circle cx="191.644" cy="193.356" r="42.2778" stroke="white" stroke-opacity="0.15"/>
<circle cx="191.645" cy="193.356" r="85.0556" stroke="white" stroke-opacity="0.15"/>
<circle cx="192.501" cy="192.499" r="63.6667" stroke="white" stroke-opacity="0.15"/>
<path d="M179.666 200.201L157.421 217.312" stroke="white" stroke-opacity="0.15"/>
<path d="M203.624 200.371L225.026 218.524" stroke="white" stroke-opacity="0.15"/>
<rect x="87.2658" y="143.732" width="13.6889" height="13.6889" rx="6.84445" fill="#575D5F" fill-opacity="0.15"/>
<path d="M91.1308 145.188C91.2717 145.118 91.443 145.175 91.5135 145.316L92.1097 146.508C92.6167 147.522 92.9035 148.616 92.9685 149.721H95.252C95.3169 148.616 95.6037 147.522 96.1108 146.508L96.707 145.316C96.7775 145.175 96.9488 145.118 97.0896 145.188C97.2305 145.259 97.2876 145.43 97.2172 145.571L96.621 146.763C96.154 147.697 95.8877 148.704 95.8234 149.721H97.5325C97.69 149.721 97.8176 149.849 97.8176 150.006C97.8176 150.164 97.69 150.292 97.5325 150.292H95.8085C95.8199 151.328 96.0405 152.364 96.4717 153.334L97.2227 155.024C97.2867 155.168 97.2218 155.336 97.0779 155.4C96.934 155.464 96.7655 155.4 96.7015 155.256L95.9505 153.566C95.4864 152.522 95.2495 151.407 95.2381 150.292H92.9824C92.971 151.407 92.734 152.522 92.27 153.566L91.519 155.256C91.455 155.4 91.2865 155.464 91.1426 155.4C90.9986 155.336 90.9338 155.168 90.9978 155.024L91.7488 153.334C92.18 152.364 92.4006 151.328 92.412 150.292H90.688C90.5305 150.292 90.4028 150.164 90.4028 150.006C90.4028 149.849 90.5305 149.721 90.688 149.721H92.3971C92.3328 148.704 92.0665 147.697 91.5995 146.763L91.0033 145.571C90.9329 145.43 90.99 145.259 91.1308 145.188Z" fill="white" fill-opacity="0.15"/>
<rect x="121.489" y="242.979" width="13.6889" height="13.6889" rx="6.84445" fill="#5B6162" fill-opacity="0.15"/>
<path d="M128.106 248.036C128.22 247.884 128.448 247.884 128.562 248.036L129.36 249.101C129.703 249.557 130.387 249.557 130.729 249.101L131.485 248.093C131.605 247.933 131.849 247.943 131.955 248.113L132.94 249.689C133.023 249.823 133.199 249.863 133.333 249.78C133.467 249.696 133.507 249.52 133.424 249.387L132.439 247.811C132.12 247.301 131.389 247.27 131.029 247.751L130.273 248.758C130.159 248.911 129.931 248.911 129.817 248.758L129.018 247.694C128.676 247.237 127.991 247.237 127.649 247.694L126.851 248.758C126.737 248.911 126.508 248.911 126.394 248.758L125.639 247.751C125.278 247.27 124.547 247.301 124.229 247.811L123.244 249.387C123.16 249.52 123.201 249.696 123.334 249.78C123.468 249.863 123.644 249.823 123.727 249.689L124.712 248.113C124.819 247.943 125.062 247.933 125.182 248.093L125.938 249.101C126.28 249.557 126.965 249.557 127.307 249.101L128.106 248.036Z" fill="white" fill-opacity="0.15"/>
<path d="M128.106 251.173C128.22 251.021 128.448 251.021 128.562 251.173L129.36 252.238C129.703 252.694 130.387 252.694 130.729 252.238L131.485 251.23C131.605 251.07 131.849 251.08 131.955 251.25L132.94 252.826C133.023 252.96 133.199 253 133.333 252.917C133.467 252.833 133.507 252.657 133.424 252.524L132.439 250.948C132.12 250.438 131.389 250.407 131.029 250.888L130.273 251.896C130.159 252.048 129.931 252.048 129.817 251.896L129.018 250.831C128.676 250.375 127.991 250.375 127.649 250.831L126.851 251.896C126.737 252.048 126.508 252.048 126.394 251.896L125.639 250.888C125.278 250.407 124.547 250.438 124.229 250.948L123.244 252.524C123.16 252.657 123.201 252.833 123.334 252.917C123.468 253 123.644 252.96 123.727 252.826L124.712 251.25C124.819 251.08 125.062 251.07 125.182 251.23L125.938 252.238C126.28 252.694 126.965 252.694 127.307 252.238L128.106 251.173Z" fill="white" fill-opacity="0.15"/>
<rect x="99.2447" y="278.91" width="13.6889" height="13.6889" rx="6.84445" fill="#5B6163" fill-opacity="0.15"/>
<path d="M110.345 281.082C110.331 281.049 110.311 281.017 110.283 280.99L110.082 280.906H105.519C105.361 280.906 105.234 281.034 105.234 281.191C105.234 281.349 105.361 281.477 105.519 281.477H109.393L104.093 286.777L102.298 284.982C102.187 284.871 102.006 284.871 101.895 284.982C101.784 285.094 101.784 285.274 101.895 285.386L103.69 287.18L100.754 290.116C100.643 290.227 100.643 290.408 100.754 290.519C100.866 290.63 101.046 290.63 101.157 290.519L104.093 287.584L105.888 289.378C105.999 289.49 106.179 289.49 106.291 289.378C106.402 289.267 106.402 289.086 106.291 288.975L104.496 287.18L109.797 281.88V285.469C109.797 285.627 109.924 285.754 110.082 285.754C110.239 285.754 110.367 285.627 110.367 285.469V281.191C110.367 281.153 110.359 281.116 110.345 281.082Z" fill="white" fill-opacity="0.15"/>
<rect x="236.134" y="304.578" width="13.6889" height="13.6889" rx="6.84445" fill="#5D6264" fill-opacity="0.15"/>
<path d="M239.208 306.681C239.11 306.558 238.93 306.538 238.807 306.637C238.684 306.735 238.664 306.915 238.763 307.038L239.841 308.385V314.274H240.411V308.389L241.337 307.286C241.451 307.149 241.66 307.15 241.774 307.286L242.693 308.389V314.274H243.263V308.389L244.185 307.283C244.299 307.146 244.509 307.146 244.623 307.283L245.479 308.309C245.521 308.361 245.545 308.425 245.545 308.492V312.847L245.545 312.848V314.188C245.545 314.486 245.633 314.778 245.799 315.027C246.079 315.447 246.551 315.7 247.057 315.7H247.541V316.418C247.541 316.469 247.602 316.494 247.638 316.458L248.641 315.455C248.664 315.433 248.664 315.397 248.641 315.375L247.638 314.372C247.602 314.336 247.541 314.361 247.541 314.412V315.13H247.057C246.742 315.13 246.448 314.972 246.273 314.71C246.17 314.556 246.115 314.374 246.115 314.188L246.115 308.492C246.115 308.292 246.045 308.098 245.917 307.944L245.061 306.917C244.719 306.507 244.089 306.507 243.747 306.917L242.978 307.84L242.212 306.921C241.871 306.511 241.242 306.511 240.899 306.919L240.131 307.835L239.208 306.681Z" fill="white" fill-opacity="0.15"/>
<rect x="294.311" y="123.199" width="13.6889" height="13.6889" rx="6.84445" fill="#545B5D" fill-opacity="0.15"/>
<path fill-rule="evenodd" clip-rule="evenodd" d="M295.844 125.258C295.967 125.159 296.147 125.179 296.245 125.302L297.168 126.456L297.936 125.54C298.279 125.132 298.908 125.133 299.249 125.542L300.015 126.461L300.784 125.539C301.126 125.128 301.756 125.128 302.098 125.539L302.954 126.565C303.082 126.719 303.152 126.913 303.152 127.113V127.65C303.343 127.467 303.508 127.32 303.663 127.209C303.957 126.999 304.229 126.906 304.578 126.906C304.803 126.906 305.059 127.013 305.287 127.189C305.521 127.37 305.746 127.64 305.908 128.003C306.233 128.734 306.288 129.815 305.698 131.29C305.267 132.367 304.582 133.085 303.863 133.551C304.164 133.787 304.587 133.972 305.18 134.038C305.336 134.055 305.449 134.196 305.432 134.353C305.414 134.509 305.273 134.622 305.117 134.605C304.311 134.515 303.734 134.228 303.335 133.848C302.607 134.2 301.9 134.321 301.441 134.321C301.283 134.321 301.156 134.194 301.156 134.036C301.156 133.879 301.283 133.751 301.441 133.751C301.807 133.751 302.369 133.658 302.962 133.392C302.962 133.391 302.961 133.39 302.96 133.389C302.598 132.814 302.531 132.17 302.582 131.737V127.113C302.582 127.046 302.558 126.982 302.515 126.93L301.66 125.904C301.546 125.767 301.336 125.767 301.222 125.904L300.3 127.01V132.895C300.3 133.053 300.172 133.181 300.015 133.181C299.857 133.181 299.73 133.053 299.73 132.895V127.01L298.811 125.907C298.697 125.771 298.488 125.77 298.373 125.907L297.448 127.01V132.895C297.448 133.053 297.32 133.181 297.163 133.181C297.005 133.181 296.878 133.053 296.878 132.895V127.006L295.8 125.659C295.701 125.536 295.721 125.356 295.844 125.258ZM303.152 131.758C303.152 131.756 303.152 131.753 303.152 131.75L303.152 128.451C303.539 128.064 303.784 127.824 303.995 127.673C304.2 127.527 304.357 127.477 304.578 127.477C304.637 127.477 304.774 127.513 304.938 127.64C305.096 127.762 305.263 127.956 305.387 128.234C305.632 128.787 305.719 129.702 305.169 131.078C304.772 132.07 304.13 132.716 303.468 133.125C303.46 133.112 303.451 133.099 303.443 133.086C303.224 132.736 303.144 132.349 303.138 132.04H303.152V131.758Z" fill="white" fill-opacity="0.15"/>
<rect x="56.4655" y="179.666" width="13.6889" height="13.6889" rx="6.84445" fill="#575D5F" fill-opacity="0.15"/>
<path fill-rule="evenodd" clip-rule="evenodd" d="M63.0631 181.377C62.4151 181.377 61.7937 181.634 61.3355 182.093C60.9617 182.466 60.7192 182.951 60.6444 183.475L60.5665 184.02C60.4916 184.544 60.5191 185.078 60.6476 185.592L60.9125 186.652C60.6837 186.56 60.4342 186.51 60.1729 186.51C59.0704 186.51 58.1766 187.404 58.1766 188.507C58.1766 189.609 59.0704 190.503 60.1729 190.503C61.2754 190.503 62.1692 189.609 62.1692 188.507C62.1692 187.96 61.9496 187.465 61.5939 187.104C61.5875 187.027 61.5747 186.949 61.5557 186.873L61.201 185.454C61.0904 185.012 61.0667 184.552 61.1312 184.101L61.209 183.555C61.2664 183.154 61.4522 182.782 61.7388 182.496C62.09 182.145 62.5664 181.947 63.0631 181.947H63.4601C63.7014 181.947 63.9405 181.993 64.1645 182.083L64.2432 182.114C64.7593 182.321 65.1448 182.763 65.2796 183.302C65.4756 184.086 65.444 184.91 65.1884 185.677L64.747 187.001L64.2775 188.879C64.1991 189.193 64.1913 189.52 64.2547 189.836L64.283 189.978C64.4099 190.613 64.849 191.14 65.4502 191.381C65.907 191.564 66.4166 191.564 66.8734 191.381L66.928 191.359C67.4915 191.134 67.9271 190.672 68.119 190.096L68.1435 190.023C68.1933 189.873 68.1125 189.712 67.9631 189.662C67.8137 189.612 67.6522 189.693 67.6024 189.842L67.5779 189.916C67.4391 190.332 67.1239 190.666 66.7162 190.83L66.6616 190.851C66.3407 190.98 65.9828 190.98 65.662 190.851C65.2398 190.682 64.9314 190.312 64.8423 189.866L64.814 189.724C64.7672 189.49 64.7729 189.249 64.8308 189.017L65.2951 187.16L65.7295 185.857C66.0194 184.987 66.0553 184.053 65.8329 183.163C65.6537 182.447 65.1411 181.859 64.4551 181.585L64.3764 181.553C64.0849 181.437 63.774 181.377 63.4601 181.377H63.0631ZM61.6701 188.507C61.6701 189.333 60.9998 190.004 60.1729 190.004C59.346 190.004 58.6757 189.333 58.6757 188.507C58.6757 187.68 59.346 187.009 60.1729 187.009C60.9998 187.009 61.6701 187.68 61.6701 188.507Z" fill="white" fill-opacity="0.15"/>
<rect x="292.6" y="179.666" width="13.6889" height="13.6889" rx="6.84445" fill="#575D5F" fill-opacity="0.15"/>
<path fill-rule="evenodd" clip-rule="evenodd" d="M299.73 191.644C301.905 191.644 303.781 190.362 304.643 188.512C304.959 188.121 305.148 187.623 305.148 187.081C305.148 185.821 304.127 184.799 302.867 184.799C301.607 184.799 300.585 185.821 300.585 187.081C300.585 188.341 301.607 189.362 302.867 189.362C303.087 189.362 303.299 189.331 303.5 189.273C302.611 190.371 301.253 191.073 299.73 191.073C298.585 191.073 297.534 190.677 296.704 190.014C296.584 189.878 296.435 189.721 296.37 189.697C296.315 189.676 296.258 189.665 296.208 189.665C296.05 189.665 295.923 189.793 295.923 189.95C295.923 190.043 295.966 190.124 296.034 190.177L296.025 190.179C296.994 191.087 298.297 191.644 299.73 191.644ZM304.161 188.2C304.421 187.9 304.578 187.509 304.578 187.081C304.578 186.136 303.812 185.37 302.867 185.37C301.922 185.37 301.156 186.136 301.156 187.081C301.156 188.026 301.922 188.792 302.867 188.792C303.381 188.792 303.843 188.565 304.156 188.205L304.159 188.201L304.161 188.2Z" fill="white" fill-opacity="0.15"/>
<path fill-rule="evenodd" clip-rule="evenodd" d="M299.73 180.807C301.855 180.807 303.694 182.03 304.582 183.81C304.59 183.845 304.582 183.758 304.582 183.81C304.582 183.967 304.613 184.229 304.293 184.229C304.135 184.229 304.008 183.944 304.008 183.944V183.944C304.008 183.942 304.007 183.941 304.007 183.94C303.19 182.415 301.581 181.377 299.73 181.377C297.865 181.377 296.246 182.43 295.435 183.974C295.774 183.773 296.17 183.658 296.593 183.658C297.853 183.658 298.874 184.68 298.874 185.94C298.874 187.2 297.853 188.221 296.593 188.221C295.455 188.221 294.513 187.389 294.34 186.301L294.312 186.307C294.312 186.28 294.311 186.253 294.311 186.225C294.311 186.167 294.312 186.11 294.314 186.052C294.312 186.015 294.311 185.978 294.311 185.94C294.311 185.761 294.332 185.588 294.371 185.421C294.759 182.81 297.011 180.807 299.73 180.807ZM294.885 186.046C294.94 186.942 295.684 187.651 296.593 187.651C297.538 187.651 298.304 186.885 298.304 185.94C298.304 184.995 297.538 184.229 296.593 184.229C295.789 184.229 295.115 184.783 294.931 185.529C294.907 185.699 294.891 185.872 294.885 186.046Z" fill="white" fill-opacity="0.15"/>
<rect x="290.889" y="260.09" width="13.6889" height="13.6889" rx="6.84445" fill="#5D6264" fill-opacity="0.15"/>
<path fill-rule="evenodd" clip-rule="evenodd" d="M292.315 262.371C292.315 262.214 292.443 262.086 292.6 262.086H292.819C293.665 262.086 294.486 262.374 295.147 262.903C295.493 263.179 295.787 263.516 296.015 263.896L296.262 264.308C296.466 264.647 296.631 265.007 296.757 265.382L296.841 265.637C297.124 265.553 297.424 265.508 297.734 265.508C298.044 265.508 298.343 265.553 298.626 265.637L298.711 265.382C298.836 265.007 299.002 264.647 299.205 264.308L299.452 263.896C299.68 263.516 299.974 263.179 300.32 262.903C300.981 262.374 301.802 262.086 302.649 262.086H302.867C303.025 262.086 303.152 262.214 303.152 262.371C303.152 262.529 303.025 262.656 302.867 262.656H302.649C301.932 262.656 301.236 262.9 300.676 263.348C300.383 263.583 300.134 263.867 299.941 264.189L299.694 264.601C299.512 264.905 299.364 265.227 299.252 265.563L299.157 265.849C300.174 266.367 300.871 267.425 300.871 268.645C300.871 270.378 299.466 271.782 297.734 271.782C296.001 271.782 294.597 270.378 294.597 268.645C294.597 267.425 295.293 266.367 296.311 265.849L296.215 265.563C296.104 265.227 295.955 264.905 295.773 264.601L295.526 264.189C295.333 263.867 295.084 263.583 294.791 263.348C294.231 262.9 293.536 262.656 292.819 262.656H292.6C292.443 262.656 292.315 262.529 292.315 262.371ZM297.734 271.212C299.151 271.212 300.3 270.063 300.3 268.645C300.3 267.228 299.151 266.079 297.734 266.079C296.316 266.079 295.167 267.228 295.167 268.645C295.167 270.063 296.316 271.212 297.734 271.212Z" fill="white" fill-opacity="0.15"/>
<rect x="188.221" y="58.1797" width="13.6889" height="13.6889" rx="6.84445" fill="#54595B" fill-opacity="0.15"/>
<path d="M190.218 60.4609L190.657 60.6072C190.931 60.6986 191.18 60.8525 191.384 61.0567C191.733 61.4056 191.929 61.8789 191.929 62.3724V62.4572M191.929 66.4498V62.4572M191.929 62.4572L192.852 61.3035C192.996 61.1231 193.167 60.9661 193.36 60.838C193.728 60.5921 194.162 60.4609 194.605 60.4609H194.888C195.193 60.4609 195.493 60.5318 195.765 60.668L195.912 60.7415C196.283 60.9271 196.566 61.2524 196.697 61.646C196.75 61.8055 196.777 61.9726 196.777 62.1407V65.6906C196.777 65.8163 196.787 65.9418 196.808 66.0657L196.947 66.8964C196.978 67.0877 197.035 67.2727 197.115 67.447M197.115 67.447L197.527 66.8798C197.597 66.7834 197.675 66.6927 197.759 66.6084L198.062 66.3054C198.335 66.0327 198.705 65.8795 199.091 65.8795H199.107C199.608 65.8795 200.072 66.1423 200.329 66.5717C200.6 67.0233 200.6 67.5875 200.329 68.039C200.072 68.4685 199.608 68.7313 199.107 68.7313H198.926C198.463 68.7313 198.019 68.5474 197.692 68.2201L197.56 68.0882C197.373 67.9016 197.223 67.6842 197.115 67.447ZM197.115 67.447L195.542 69.61C195.416 69.7822 195.252 69.9217 195.061 70.017C194.877 70.1092 194.673 70.1572 194.467 70.1572H193.355" stroke="white" stroke-opacity="0.15" stroke-linecap="round"/>
<rect x="101.663" y="191.703" width="127.333" height="127.333" transform="rotate(-45 101.663 191.703)" stroke="white" stroke-opacity="0.15"/>
<rect x="108.508" y="192.496" width="118.778" height="118.778" transform="rotate(-45 108.508 192.496)" stroke="white" stroke-opacity="0.15"/>
<rect x="253.245" y="266.932" width="13.6889" height="13.6889" rx="6.84445" fill="#5D6264" fill-opacity="0.15"/>
<path d="M261.08 269.619C261.721 268.864 262.358 268.546 262.863 268.424C263.113 268.364 263.326 268.353 263.483 268.359C263.561 268.361 263.625 268.368 263.672 268.373C263.69 268.376 263.707 268.378 263.718 268.379L263.725 268.38L263.728 268.381C264.104 268.385 264.537 268.557 264.876 268.837C265.224 269.124 265.508 269.554 265.508 270.089C265.508 270.546 265.428 270.964 265.196 271.313C264.962 271.666 264.598 271.912 264.101 272.068C263.95 272.115 263.79 272.032 263.743 271.881C263.696 271.731 263.779 271.571 263.93 271.524C264.338 271.395 264.578 271.214 264.721 270.998C264.867 270.778 264.938 270.485 264.938 270.089C264.938 269.77 264.769 269.488 264.513 269.277C264.253 269.062 263.938 268.951 263.713 268.951C263.686 268.951 263.656 268.947 263.65 268.946L263.648 268.946L263.639 268.944C263.628 268.943 263.616 268.941 263.602 268.939C263.568 268.935 263.521 268.931 263.464 268.929C263.35 268.925 263.189 268.932 262.996 268.979C262.615 269.071 262.082 269.321 261.515 269.989C261.122 270.451 260.835 271.075 260.646 271.688C260.457 272.3 260.375 272.874 260.375 273.218V278.909C260.375 279.067 260.247 279.194 260.09 279.194C259.932 279.194 259.804 279.067 259.804 278.909V273.206C259.804 272.858 259.726 272.281 259.548 271.667C259.369 271.052 259.097 270.425 258.726 269.961C258.191 269.293 257.691 269.045 257.337 268.955C257.158 268.909 257.009 268.902 256.904 268.905C256.851 268.907 256.808 268.912 256.776 268.916C256.763 268.918 256.753 268.919 256.742 268.921L256.733 268.922L256.732 268.922C256.727 268.923 256.696 268.928 256.667 268.928C256.465 268.928 256.173 269.035 255.928 269.249C255.689 269.459 255.527 269.742 255.527 270.069C255.527 270.468 255.594 270.764 255.733 270.987C255.868 271.203 256.092 271.382 256.472 271.509C256.622 271.559 256.703 271.72 256.653 271.87C256.603 272.019 256.441 272.1 256.292 272.05C255.817 271.892 255.47 271.643 255.249 271.289C255.032 270.941 254.956 270.525 254.956 270.069C254.956 269.54 255.222 269.11 255.553 268.82C255.874 268.539 256.287 268.363 256.651 268.358L257.478 268.402C257.962 268.525 258.566 268.848 259.172 269.605C259.607 270.149 259.905 270.854 260.095 271.508C260.097 271.513 260.098 271.518 260.1 271.523C260.1 271.522 260.101 271.521 260.101 271.52C260.303 270.866 260.619 270.162 261.08 269.619Z" fill="white" fill-opacity="0.15"/>
<rect x="99.2447" y="94.1113" width="13.6889" height="13.6889" rx="6.84445" fill="#54595B" fill-opacity="0.15"/>
<path d="M108.085 102.667C108.085 102.509 108.213 102.382 108.371 102.382H108.353C109.063 101.754 109.511 100.837 109.511 99.8149C109.511 97.9248 107.979 96.3926 106.089 96.3926C104.199 96.3926 102.667 97.9248 102.667 99.8149C102.667 100.837 103.115 101.754 103.826 102.382H103.808C103.965 102.382 104.093 102.509 104.093 102.667C104.093 102.824 103.965 102.952 103.808 102.952H101.526C101.369 102.952 101.241 102.824 101.241 102.667C101.241 102.509 101.369 102.382 101.526 102.382H103.031C102.448 101.688 102.097 100.792 102.097 99.8149C102.097 97.6098 103.884 95.8223 106.089 95.8223C108.294 95.8223 110.082 97.6098 110.082 99.8149C110.082 100.792 109.731 101.688 109.148 102.382H110.652C110.81 102.382 110.937 102.509 110.937 102.667C110.937 102.824 110.81 102.952 110.652 102.952H108.371C108.213 102.952 108.085 102.824 108.085 102.667Z" fill="white" fill-opacity="0.15"/>
<path d="M101.526 104.663C101.369 104.663 101.241 104.791 101.241 104.948C101.241 105.106 101.369 105.233 101.526 105.233H110.652C110.81 105.233 110.937 105.106 110.937 104.948C110.937 104.791 110.81 104.663 110.652 104.663H101.526Z" fill="white" fill-opacity="0.15"/>
<rect x="234.421" y="116.357" width="13.6889" height="13.6889" rx="6.84445" fill="#545B5D" fill-opacity="0.15"/>
<path d="M236.463 118.484C236.549 118.352 236.725 118.314 236.857 118.399C236.857 118.399 236.858 118.399 236.703 118.639L236.548 118.878C236.416 118.793 236.378 118.616 236.463 118.484Z" fill="white" fill-opacity="0.15"/>
<path fill-rule="evenodd" clip-rule="evenodd" d="M239.27 126.532V119.872C238.716 119.763 238.235 119.62 237.839 119.477C237.431 119.33 237.112 119.183 236.893 119.071C236.783 119.015 236.699 118.968 236.641 118.934C236.612 118.918 236.59 118.904 236.574 118.895L236.556 118.883L236.551 118.88L236.549 118.879L236.548 118.878C236.548 118.878 236.548 118.878 236.703 118.639L236.857 118.399L236.86 118.401L236.873 118.408C236.884 118.416 236.903 118.427 236.927 118.441C236.977 118.47 237.052 118.512 237.152 118.563C237.352 118.665 237.649 118.803 238.032 118.941C238.799 119.217 239.906 119.494 241.266 119.494C242.625 119.494 243.733 119.217 244.499 118.941C244.882 118.803 245.18 118.665 245.379 118.563C245.479 118.512 245.555 118.47 245.604 118.441C245.629 118.427 245.647 118.416 245.659 118.408L245.672 118.401L245.674 118.399C245.806 118.314 245.983 118.352 246.068 118.484C246.154 118.616 246.116 118.793 245.984 118.878L245.829 118.639C245.984 118.878 245.984 118.878 245.984 118.878L245.983 118.879L245.981 118.88L245.976 118.883L245.957 118.895C245.942 118.904 245.92 118.918 245.891 118.934C245.833 118.968 245.748 119.015 245.639 119.071C245.42 119.183 245.101 119.33 244.693 119.477C244.297 119.62 243.816 119.763 243.262 119.872V126.532C243.816 126.641 244.297 126.783 244.693 126.926C245.101 127.073 245.42 127.221 245.639 127.332C245.748 127.388 245.833 127.435 245.891 127.469C245.92 127.486 245.942 127.499 245.957 127.509L245.976 127.52L245.981 127.523L245.983 127.524L245.983 127.525C245.983 127.525 245.984 127.525 245.829 127.765L245.983 127.525C246.115 127.61 246.154 127.787 246.068 127.919C245.983 128.052 245.807 128.09 245.674 128.004L245.672 128.003L245.659 127.995C245.647 127.988 245.629 127.977 245.604 127.962C245.555 127.934 245.479 127.891 245.379 127.84C245.18 127.738 244.882 127.601 244.499 127.463C243.733 127.186 242.625 126.909 241.266 126.909C239.906 126.909 238.799 127.186 238.032 127.463C237.649 127.601 237.352 127.738 237.152 127.84C237.052 127.891 236.977 127.934 236.927 127.962C236.903 127.977 236.884 127.988 236.873 127.995L236.86 128.003L236.858 128.004L236.703 127.765C236.548 127.525 236.548 127.525 236.548 127.525L236.549 127.524L236.551 127.523L236.556 127.52L236.574 127.509C236.59 127.499 236.612 127.486 236.641 127.469C236.699 127.435 236.783 127.388 236.893 127.332C237.112 127.221 237.431 127.073 237.839 126.926C238.235 126.783 238.716 126.641 239.27 126.532ZM239.84 126.436C240.279 126.376 240.756 126.339 241.266 126.339C241.776 126.339 242.252 126.376 242.692 126.436V119.967C242.252 120.028 241.776 120.065 241.266 120.065C240.756 120.065 240.279 120.028 239.84 119.967V126.436Z" fill="white" fill-opacity="0.15"/>
<path d="M236.858 128.004C236.858 128.004 236.858 128.004 236.858 128.004Z" fill="white" fill-opacity="0.15"/>
<path d="M236.858 128.004C236.725 128.09 236.549 128.052 236.463 127.919C236.378 127.787 236.416 127.61 236.548 127.525L236.703 127.765C236.858 128.004 236.858 128.004 236.858 128.004Z" fill="white" fill-opacity="0.15"/>
<circle cx="191.645" cy="207.043" r="16.6111" stroke="white" stroke-opacity="0.15"/>
<circle cx="200.201" cy="207.043" r="16.6111" stroke="white" stroke-opacity="0.15"/>
<circle cx="205.333" cy="201.91" r="16.6111" stroke="white" stroke-opacity="0.15"/>
<circle cx="208.756" cy="198.488" r="16.6111" stroke="white" stroke-opacity="0.15"/>
<circle cx="208.756" cy="193.353" r="16.6111" stroke="white" stroke-opacity="0.15"/>
<circle cx="208.756" cy="188.22" r="16.6111" stroke="white" stroke-opacity="0.15"/>
<circle cx="207.045" cy="183.09" r="16.6111" stroke="white" stroke-opacity="0.15"/>
<circle cx="203.622" cy="179.664" r="16.6111" stroke="white" stroke-opacity="0.15"/>
<circle cx="196.777" cy="176.244" r="16.6111" stroke="white" stroke-opacity="0.15"/>
<circle cx="191.645" cy="172.822" r="16.6111" stroke="white" stroke-opacity="0.15"/>
<circle cx="184.8" cy="176.244" r="16.6111" stroke="white" stroke-opacity="0.15"/>
<circle cx="177.955" cy="181.379" r="16.6111" stroke="white" stroke-opacity="0.15"/>
<circle cx="176.246" cy="186.51" r="16.6111" stroke="white" stroke-opacity="0.15"/>
<circle cx="176.246" cy="193.353" r="16.6111" stroke="white" stroke-opacity="0.15"/>
<circle cx="179.666" cy="201.91" r="16.6111" stroke="white" stroke-opacity="0.15"/>
<circle cx="186.511" cy="207.043" r="16.6111" stroke="white" stroke-opacity="0.15"/>
<path d="M191.645 176.242L206.464 201.909H176.826L191.645 176.242Z" fill="#595F60" fill-opacity="0.15"/>
<path d="M177.693 201.409L191.645 177.242L205.598 201.409H177.693Z" stroke="white" stroke-opacity="0.15"/>
<path d="M191.645 177.956V152.289" stroke="white" stroke-opacity="0.15"/>
<circle cx="333.666" cy="239.556" r="8.55556" fill="white" fill-opacity="0.15"/>
<circle cx="249.823" cy="80.4243" r="5.13333" fill="white" fill-opacity="0.15"/>
<circle cx="200.2" cy="22.2447" r="5.13333" fill="white" fill-opacity="0.15"/>
<circle cx="146.3" cy="96.678" r="2.56667" fill="white" fill-opacity="0.15"/>
<circle cx="278.056" cy="45.344" r="2.56667" fill="white" fill-opacity="0.15"/>
<circle cx="295.167" cy="219.877" r="2.56667" fill="white" fill-opacity="0.15"/>
<circle cx="341.367" cy="185.655" r="2.56667" fill="white" fill-opacity="0.15"/>
<circle cx="88.1216" cy="214.746" r="2.56667" fill="white" fill-opacity="0.15"/>
<circle cx="26.5221" cy="148.01" r="2.56667" fill="white" fill-opacity="0.15"/>
<circle cx="75.2887" cy="138.6" r="5.13333" fill="white" fill-opacity="0.15"/>
<circle cx="277.2" cy="316.553" r="5.13333" fill="white" fill-opacity="0.15"/>
<circle cx="347.355" cy="121.491" r="5.13333" fill="white" fill-opacity="0.15"/>
<circle cx="172.822" cy="318.264" r="5.13333" fill="white" fill-opacity="0.15"/>
<circle cx="47.9105" cy="287.466" r="8.55556" fill="white" fill-opacity="0.15"/>
<circle cx="121.489" cy="37.6434" r="8.55556" fill="white" fill-opacity="0.15"/>
<rect x="181.379" y="350.779" width="27.3778" height="27.3778" rx="13.6889" fill="#5D6364" fill-opacity="0.15"/>
<path d="M195.068 354.201C193.706 355.563 192.942 357.409 192.942 359.335C192.942 361.26 193.706 363.106 195.068 364.468C196.429 365.829 198.276 366.594 200.201 366.594C202.127 366.594 203.973 365.829 205.335 364.468C205.335 366.498 204.732 368.483 203.604 370.172C202.476 371.86 200.873 373.176 198.997 373.953C197.121 374.73 195.056 374.933 193.065 374.537C191.073 374.141 189.244 373.163 187.808 371.727C186.372 370.292 185.395 368.462 184.998 366.471C184.602 364.479 184.806 362.415 185.583 360.539C186.36 358.663 187.676 357.06 189.364 355.931C191.052 354.803 193.037 354.201 195.068 354.201Z" fill="white" fill-opacity="0.15" stroke="white" stroke-opacity="0.15" stroke-width="2" stroke-linecap="round" stroke-linejoin="round"/>
</svg>
