<svg width="87" height="86" viewBox="0 0 87 86" fill="none" xmlns="http://www.w3.org/2000/svg">
<circle cx="43.6443" cy="42.7778" r="42.2778" stroke="white" stroke-opacity="0.15"/>
<path d="M31.6656 49.2012L9.42114 66.3123" stroke="white" stroke-opacity="0.15"/>
<path d="M55.6235 49.3712L77.0262 67.5242" stroke="white" stroke-opacity="0.15"/>
<circle cx="43.6451" cy="56.0428" r="16.6111" stroke="white" stroke-opacity="0.15"/>
<circle cx="52.201" cy="56.0428" r="16.6111" stroke="white" stroke-opacity="0.15"/>
<circle cx="57.3326" cy="50.9099" r="16.6111" stroke="white" stroke-opacity="0.15"/>
<circle cx="60.7556" cy="47.4881" r="16.6111" stroke="white" stroke-opacity="0.15"/>
<circle cx="60.7556" cy="42.3533" r="16.6111" stroke="white" stroke-opacity="0.15"/>
<circle cx="60.7556" cy="37.2205" r="16.6111" stroke="white" stroke-opacity="0.15"/>
<circle cx="59.0447" cy="32.0896" r="16.6111" stroke="white" stroke-opacity="0.15"/>
<circle cx="55.6217" cy="28.6638" r="16.6111" stroke="white" stroke-opacity="0.15"/>
<circle cx="48.7768" cy="25.2439" r="16.6111" stroke="white" stroke-opacity="0.15"/>
<circle cx="43.6451" cy="21.8221" r="16.6111" stroke="white" stroke-opacity="0.15"/>
<circle cx="36.8002" cy="25.2439" r="16.6111" stroke="white" stroke-opacity="0.15"/>
<circle cx="29.9553" cy="30.3787" r="16.6111" stroke="white" stroke-opacity="0.15"/>
<circle cx="28.2456" cy="35.5096" r="16.6111" stroke="white" stroke-opacity="0.15"/>
<circle cx="28.2456" cy="42.3533" r="16.6111" stroke="white" stroke-opacity="0.15"/>
<circle cx="31.6662" cy="50.9099" r="16.6111" stroke="white" stroke-opacity="0.15"/>
<circle cx="38.5112" cy="56.0428" r="16.6111" stroke="white" stroke-opacity="0.15"/>
<path d="M44.6111 25L58.9968 50.6667H30.2255L44.6111 25Z" fill="#595F60" fill-opacity="0.15"/>
<path d="M31.0789 50.1667L44.6111 26.0227L58.1433 50.1667H31.0789Z" stroke="white" stroke-opacity="0.15"/>
<path d="M43.6445 26.9557V1.28906" stroke="white" stroke-opacity="0.15"/>
</svg>
